%FSLAX44Y44*%
%MOMM*%
G71*
G01*
G75*
%ADD10C,0.2032*%
%ADD11R,1.2000X2.2500*%
%ADD12R,0.5200X0.4200*%
%ADD13R,0.4200X0.5200*%
%ADD14R,7.1500X7.1500*%
%ADD15O,0.7620X0.2286*%
%ADD16O,0.2286X0.7620*%
%ADD17R,0.6604X0.7112*%
%ADD18R,1.1430X1.2700*%
%ADD19R,1.3208X0.9652*%
%ADD20C,0.3810*%
%ADD21C,0.1524*%
%ADD22C,0.2540*%
%ADD23C,0.5080*%
%ADD24C,1.2000*%
%ADD25C,3.2000*%
%ADD26C,0.6604*%
%ADD27R,1.1430X0.8128*%
%ADD28R,1.0668X0.8128*%
%ADD29R,1.3970X0.8636*%
%ADD30R,0.7620X1.4732*%
%ADD31R,0.9144X1.4732*%
%ADD32R,1.4224X1.4224*%
%ADD33R,0.7620X1.3716*%
%ADD34R,1.0668X1.5240*%
%ADD35R,0.6096X1.7272*%
%ADD36R,0.5588X1.7272*%
%ADD37O,0.3302X1.3208*%
%ADD38C,0.1778*%
%ADD39C,0.1520*%
D10*
X2569646Y2067066D02*
X2568754Y2069222D01*
X2566598Y2070114D01*
X2564443Y2069222D01*
X2563550Y2067066D01*
X2564443Y2064911D01*
X2566598Y2064019D01*
X2568754Y2064911D01*
X2569646Y2067066D01*
X2523673Y2059193D02*
Y2099198D01*
Y2059193D02*
X2574600D01*
Y2076591D01*
X2571298D02*
X2574600D01*
X2571298D02*
Y2081926D01*
X2574600D01*
Y2099198D01*
X2523673D02*
X2574600D01*
D21*
X2489647Y2052589D02*
X2508316D01*
X2489647Y2042809D02*
Y2052589D01*
Y2042809D02*
X2508316D01*
Y2052589D01*
Y2055764D02*
Y2065542D01*
X2489647Y2055764D02*
X2508316D01*
X2489647D02*
Y2065542D01*
X2508316D01*
D38*
X2489647Y2071765D02*
Y2079386D01*
Y2071765D02*
X2498029D01*
X2489647Y2103515D02*
X2498029D01*
X2489647Y2095896D02*
Y2103515D01*
X2496251Y1910349D02*
X2503490D01*
X2482535Y1925208D02*
Y1987565D01*
X2495489Y2025029D02*
X2601915D01*
Y2013981D02*
Y2025029D01*
X2602042Y1926096D02*
Y1981469D01*
M02*
