%FSLAX44Y44*%
%MOMM*%
G71*
G01*
G75*
%ADD10C,0.2032*%
%ADD11R,1.2000X2.2500*%
%ADD12R,0.5200X0.4200*%
%ADD13R,0.4200X0.5200*%
%ADD14R,7.1500X7.1500*%
%ADD15O,0.7620X0.2286*%
%ADD16O,0.2286X0.7620*%
%ADD17R,0.6604X0.7112*%
%ADD18R,1.1430X1.2700*%
%ADD19R,1.3208X0.9652*%
%ADD20C,0.3810*%
%ADD21C,0.1524*%
%ADD22C,0.2540*%
%ADD23C,0.5080*%
%ADD24C,1.2000*%
%ADD25C,3.2000*%
%ADD26C,0.6604*%
%ADD27R,1.1430X0.8128*%
%ADD28R,1.0668X0.8128*%
%ADD29R,1.3970X0.8636*%
%ADD30R,0.7620X1.4732*%
%ADD31R,0.9144X1.4732*%
%ADD32R,1.4224X1.4224*%
%ADD33R,0.7620X1.3716*%
%ADD34R,1.0668X1.5240*%
%ADD35R,0.6096X1.7272*%
%ADD36R,0.5588X1.7272*%
%ADD37O,0.3302X1.3208*%
%ADD38C,0.1778*%
%ADD39C,0.1520*%
D21*
X2499266Y2120121D02*
X2586266D01*
X2483966Y2157522D02*
X2600966D01*
X2553909Y2050683D02*
Y2069353D01*
X2563688D01*
Y2050683D02*
Y2069353D01*
X2553909Y2050683D02*
X2563688D01*
X2617409Y1933844D02*
Y1952513D01*
X2627188D01*
Y1933844D02*
Y1952513D01*
X2617409Y1933844D02*
X2627188D01*
X2464501Y1946416D02*
X2483170D01*
X2464501D02*
Y1956196D01*
X2483170D01*
Y1946416D02*
Y1956196D01*
X2590231Y2050430D02*
X2600010D01*
Y2069099D01*
X2590231D02*
X2600010D01*
X2590231Y2050430D02*
Y2069099D01*
X2565974Y2069225D02*
X2575753D01*
X2565974Y2050556D02*
Y2069225D01*
Y2050556D02*
X2575753D01*
Y2069225D01*
X2617282Y1983627D02*
X2627061D01*
X2617282Y1964958D02*
Y1983627D01*
Y1964958D02*
X2627061D01*
Y1983627D01*
X2602423Y2050430D02*
X2612202D01*
Y2069099D01*
X2602423D02*
X2612202D01*
X2602423Y2050430D02*
Y2069099D01*
X2617282Y2022489D02*
X2627061D01*
X2617282Y2003820D02*
Y2022489D01*
Y2003820D02*
X2627061D01*
Y2022489D01*
X2480884Y2032650D02*
X2490663D01*
X2480884Y2013981D02*
Y2032650D01*
Y2013981D02*
X2490663D01*
Y2032650D01*
X2578166Y2069225D02*
X2587945D01*
X2578166Y2050556D02*
Y2069225D01*
Y2050556D02*
X2587945D01*
Y2069225D01*
X2483170Y1959624D02*
Y1969404D01*
X2464501D02*
X2483170D01*
X2464501Y1959624D02*
Y1969404D01*
Y1959624D02*
X2483170D01*
X2466787Y2014108D02*
X2476566D01*
Y2032776D01*
X2466787D02*
X2476566D01*
X2466787Y2014108D02*
Y2032776D01*
X2467270Y1990358D02*
Y1994422D01*
X2490892Y1990358D02*
Y1994422D01*
X2476439Y2075829D02*
X2512507D01*
X2476439Y2042047D02*
X2512507D01*
D38*
X2500706Y2059193D02*
X2500251Y2061628D01*
X2498947Y2063734D01*
X2496970Y2065227D01*
X2494587Y2065905D01*
X2492120Y2065676D01*
X2489903Y2064572D01*
X2488234Y2062741D01*
X2487339Y2060431D01*
Y2057954D01*
X2488234Y2055644D01*
X2489903Y2053813D01*
X2492120Y2052709D01*
X2494587Y2052480D01*
X2496970Y2053158D01*
X2498947Y2054651D01*
X2500251Y2056757D01*
X2500706Y2059193D01*
X2602356Y2024082D02*
Y2026082D01*
X2599856Y2028581D02*
X2602356Y2026082D01*
X2597856Y2028581D02*
X2599856D01*
X2602356Y1936582D02*
Y1941082D01*
X2597856Y1936582D02*
X2602356D01*
X2510356D02*
X2514856D01*
X2510356D02*
Y1941082D01*
Y2024082D02*
Y2028581D01*
X2514856D01*
X2493584Y1928510D02*
Y1942225D01*
X2464501D02*
X2493584D01*
X2464501Y1928510D02*
Y1942225D01*
Y1928510D02*
X2493584D01*
D39*
X2600966Y2147421D02*
Y2157522D01*
X2483966Y2147722D02*
Y2157522D01*
M02*
