%FSLAX44Y44*%
%MOMM*%
G71*
G01*
G75*
%ADD10C,0.2032*%
%ADD11R,1.2000X2.2500*%
%ADD12R,0.5200X0.4200*%
%ADD13R,0.4200X0.5200*%
%ADD14R,7.1500X7.1500*%
%ADD15O,0.7620X0.2286*%
%ADD16O,0.2286X0.7620*%
%ADD17R,0.6604X0.7112*%
%ADD18R,1.1430X1.2700*%
%ADD19R,1.3208X0.9652*%
%ADD20C,0.3810*%
%ADD21C,0.1524*%
%ADD22C,0.2540*%
%ADD23C,0.5080*%
%ADD24C,1.2000*%
%ADD25C,3.2000*%
%ADD26C,0.6604*%
%ADD27R,1.1430X0.8128*%
%ADD28R,1.0668X0.8128*%
%ADD29R,1.3970X0.8636*%
%ADD30R,0.7620X1.4732*%
%ADD31R,0.9144X1.4732*%
%ADD32R,1.4224X1.4224*%
%ADD33R,0.7620X1.3716*%
%ADD34R,1.0668X1.5240*%
%ADD35R,0.6096X1.7272*%
%ADD36R,0.5588X1.7272*%
%ADD37O,0.3302X1.3208*%
D10*
X2568969Y2151468D02*
X2566991Y2152678D01*
X2568969Y2151468D02*
X2566991Y2152678D01*
X2621473Y2079639D02*
X2621096Y2081535D01*
X2620023Y2083142D01*
X2621473Y2079639D02*
X2621096Y2081535D01*
X2620023Y2083142D01*
X2583881Y2134503D02*
X2583504Y2136399D01*
X2582430Y2138006D01*
X2583881Y2134503D02*
X2583504Y2136399D01*
X2582430Y2138006D01*
X2573975Y2117231D02*
X2574352Y2115336D01*
X2575426Y2113729D01*
X2573975Y2117231D02*
X2574352Y2115336D01*
X2575426Y2113729D01*
X2621473Y2050520D02*
X2622511Y2052387D01*
X2622870Y2054494D01*
X2622511Y2056600D01*
X2621473Y2058467D01*
X2611567D02*
X2610331Y2055913D01*
X2610331Y2053074D01*
X2611567Y2050520D01*
X2567781Y2138646D02*
X2565321Y2138979D01*
X2562863Y2138632D01*
X2560592Y2137630D01*
X2558679Y2136048D01*
X2557267Y2134005D01*
X2556464Y2131656D01*
X2556330Y2129177D01*
X2556874Y2126755D01*
X2558057Y2124572D01*
X2559788Y2122792D01*
X2561938Y2121550D01*
X2564344Y2120939D01*
X2566826Y2121005D01*
X2569196Y2121743D01*
X2571277Y2123098D01*
X2572911Y2124967D01*
X2573975Y2127210D01*
X2567781Y2138646D02*
X2565321Y2138979D01*
X2562863Y2138632D01*
X2560592Y2137630D01*
X2558679Y2136048D01*
X2557267Y2134005D01*
X2556464Y2131656D01*
X2556330Y2129177D01*
X2556874Y2126755D01*
X2558057Y2124572D01*
X2559788Y2122792D01*
X2561938Y2121550D01*
X2564344Y2120939D01*
X2566826Y2121005D01*
X2569196Y2121743D01*
X2571277Y2123098D01*
X2572911Y2124967D01*
X2573975Y2127210D01*
X2573467Y2115327D02*
X2572690Y2117916D01*
X2570613Y2119648D01*
X2567927Y2119949D01*
X2565518Y2118720D01*
Y2102027D02*
X2567927Y2100797D01*
X2570613Y2101099D01*
X2572690Y2102831D01*
X2573467Y2105421D01*
X2566967Y2053351D02*
X2566228Y2055880D01*
Y2056526D02*
X2565112Y2059220D01*
X2559019Y2102027D02*
X2561085Y2100873D01*
X2563452D01*
X2565518Y2102027D01*
X2566228Y2056526D02*
X2565114Y2059218D01*
X2565518Y2118720D02*
X2563452Y2119874D01*
X2561085D01*
X2559019Y2118720D01*
X2556952Y2119874D01*
X2554585D01*
X2552519Y2118720D01*
X2550110Y2119949D01*
X2547424Y2119648D01*
X2545347Y2117916D01*
X2544570Y2115327D01*
X2553333Y2101402D02*
X2556281Y2100750D01*
X2559019Y2102027D01*
X2552139Y2081552D02*
X2553333Y2084429D01*
X2544570Y2105421D02*
X2545205Y2103062D01*
X2552142Y2081556D02*
X2553333Y2084429D01*
X2559272Y2065060D02*
X2559269Y2065063D01*
X2559270Y2065062D02*
X2556576Y2066178D01*
X2559269Y2065063D02*
X2556576Y2066178D01*
X2565114Y2059218D02*
X2565111Y2059221D01*
X2554290Y2066178D02*
X2552315Y2067906D01*
X2549810Y2068689D01*
X2547202Y2068392D01*
X2544937Y2067065D01*
X2543403Y2064936D01*
X2542860Y2062368D01*
X2543403Y2059799D01*
X2544937Y2057670D01*
X2547202Y2056343D01*
X2549810Y2056046D01*
X2552315Y2056828D01*
X2554290Y2058557D01*
X2555513Y2058042D02*
X2553273Y2057332D01*
X2551657Y2055626D01*
X2551069Y2053351D01*
Y2043445D02*
X2551321Y2041927D01*
X2550328Y2040933D02*
X2550325Y2040930D01*
X2547193Y2041863D02*
X2547467Y2043445D01*
X2620023Y1960313D02*
X2621096Y1961920D01*
X2621473Y1963815D01*
X2620023Y1960313D02*
X2621096Y1961920D01*
X2621473Y1963815D01*
X2611567Y1966825D02*
X2609404Y1965643D01*
X2607853Y1963725D01*
X2607150Y1961362D01*
X2607400Y1958909D01*
X2608566Y1956737D01*
X2610471Y1955172D01*
X2612829Y1954450D01*
X2615283Y1954681D01*
X2617465Y1955830D01*
X2619045Y1957723D01*
X2619785Y1960075D01*
X2582656Y1924445D02*
X2581759Y1926817D01*
X2580005Y1928649D01*
X2577674Y1929648D01*
X2575139Y1929655D01*
X2572802Y1928670D01*
X2571037Y1926849D01*
X2570126Y1924482D01*
X2570214Y1921948D01*
X2566046Y2040650D02*
X2566967Y2043445D01*
X2556830Y2029773D02*
X2558988Y2029349D01*
X2561162Y2029686D01*
X2563090Y2030744D01*
X2565212Y1939940D02*
X2564096Y1942634D01*
X2564098Y1942632D02*
X2564095Y1942635D01*
X2550326Y2040932D02*
X2549210Y2038237D01*
X2550325Y2040930D02*
X2549210Y2038237D01*
Y1948322D02*
X2550325Y1945629D01*
X2549210Y2037222D02*
X2548684Y2039752D01*
X2547193Y2041863D01*
X2550325Y1945629D02*
X2550328Y1945626D01*
X2549210Y1948322D02*
X2550326Y1945627D01*
X2565212Y1939940D02*
X2564098Y1942632D01*
X2557220Y1933034D02*
X2557002Y1933272D01*
X2557004Y1933270D02*
X2557001Y1933273D01*
X2557220Y1933034D02*
X2557004Y1933270D01*
X2567752Y1928255D02*
X2567082Y1931095D01*
X2565212Y1933336D01*
X2560404Y1921984D02*
X2563122Y1922143D01*
X2565524Y1923425D01*
X2567168Y1925596D01*
X2567752Y1928255D01*
X2557592Y1933336D02*
X2557220Y1933034D01*
X2547117Y1928571D02*
X2546003Y1931263D01*
X2547117Y1928571D02*
X2546001Y1931264D01*
X2546003Y1931263D02*
X2546000Y1931266D01*
X2540967Y2115327D02*
X2540190Y2117916D01*
X2538114Y2119648D01*
X2535427Y2119949D01*
X2533018Y2118720D01*
X2518503Y2152373D02*
X2517260Y2151468D01*
X2518503Y2152373D02*
X2517260Y2151468D01*
X2528794Y2129931D02*
X2528440Y2132438D01*
X2527406Y2134748D01*
X2525771Y2136682D01*
X2523666Y2138087D01*
X2521253Y2138853D01*
X2518723Y2138921D01*
X2528794Y2129931D02*
X2528440Y2132438D01*
X2527406Y2134748D01*
X2525771Y2136682D01*
X2523666Y2138087D01*
X2521253Y2138853D01*
X2518723Y2138921D01*
X2512253Y2124860D02*
X2513967Y2122970D01*
X2516141Y2121633D01*
X2518601Y2120956D01*
X2521152Y2120993D01*
X2523592Y2121741D01*
X2525726Y2123141D01*
X2527384Y2125080D01*
X2528434Y2127405D01*
X2528794Y2129931D01*
X2512253Y2124860D02*
X2513967Y2122970D01*
X2516141Y2121633D01*
X2518601Y2120956D01*
X2521152Y2120993D01*
X2523592Y2121741D01*
X2525726Y2123141D01*
X2527384Y2125080D01*
X2528434Y2127405D01*
X2528794Y2129931D01*
X2542444Y2083352D02*
X2541578Y2085389D01*
X2540066Y2087005D01*
Y2102653D02*
X2540967Y2105421D01*
X2539145Y2070242D02*
X2542022Y2071435D01*
X2547467Y2053351D02*
X2546689Y2055940D01*
X2544613Y2057672D01*
X2541927Y2057973D01*
X2539518Y2056744D01*
X2539145Y2070242D02*
X2542019Y2071432D01*
X2525070Y2105421D02*
X2525959Y2102670D01*
X2533018Y2118720D02*
X2530610Y2119949D01*
X2527923Y2119648D01*
X2525847Y2117916D01*
X2525070Y2115327D01*
X2525822Y2085233D02*
X2524025Y2087289D01*
X2521532Y2088400D01*
X2518802Y2088361D01*
X2516340Y2087180D01*
X2514602Y2085074D01*
X2513909Y2082433D01*
X2529126Y2067745D02*
X2531551Y2068548D01*
X2533462Y2070242D01*
X2516190Y2073797D02*
X2518222Y2074306D01*
X2539518Y2056744D02*
X2537110Y2057973D01*
X2534423Y2057672D01*
X2532347Y2055940D01*
X2531569Y2053351D01*
X2516190Y2073797D02*
X2518222Y2074306D01*
X2503798Y2138006D02*
X2502724Y2136399D01*
X2502347Y2134503D01*
X2510802Y2112713D02*
X2511876Y2114320D01*
X2512253Y2116216D01*
X2510802Y2112713D02*
X2511876Y2114320D01*
X2512253Y2116216D01*
X2503798Y2138006D02*
X2502724Y2136399D01*
X2502347Y2134503D01*
X2490352Y2106272D02*
X2487743Y2105384D01*
X2485756Y2103475D01*
X2484765Y2100905D01*
X2494854Y2094879D02*
X2496560Y2096814D01*
X2497356Y2099267D01*
X2484765Y2100905D02*
X2482073Y2099831D01*
X2480139Y2097672D01*
X2479365Y2094879D01*
X2491120Y2070731D02*
X2490663Y2070186D01*
X2491124Y2070735D02*
X2490663Y2070186D01*
X2540066Y2031519D02*
X2542541Y2030880D01*
X2545067Y2031267D01*
X2547236Y2032620D01*
X2548696Y2034718D01*
X2549210Y2037222D01*
X2532446Y1948630D02*
X2533561Y1945937D01*
X2531569Y2043445D02*
X2532446Y2040711D01*
Y1948630D02*
X2533562Y1945936D01*
X2533561Y1945937D02*
X2533564Y1945934D01*
X2511012Y2050328D02*
X2511009Y2050331D01*
X2509146Y2051354D01*
X2511010Y2050330D02*
X2509146Y2051354D01*
X2518222Y2045603D02*
X2515546Y2045794D01*
X2510158Y2040405D02*
X2510240Y2038156D01*
X2511101Y2036076D01*
X2512634Y2034427D01*
X2526350Y1924445D02*
X2527294Y1926248D01*
X2527620Y1928255D01*
X2526210Y1924266D02*
X2526350Y1924445D01*
X2519140Y1939533D02*
X2520064Y1941037D01*
X2519138Y1939531D02*
X2520064Y1941037D01*
X2519137Y1939530D02*
X2519140Y1939533D01*
X2516190Y1924445D02*
X2516401Y1924180D01*
X2527620Y1928255D02*
X2527067Y1930848D01*
X2525503Y1932989D01*
X2523202Y1934305D01*
X2520564Y1934566D01*
X2518049Y1933728D01*
X2516095Y1931936D01*
X2515044Y1929502D01*
X2515077Y1926852D01*
X2516190Y1924445D01*
X2499680Y2038492D02*
X2498634Y2041983D01*
X2489357Y2033539D02*
X2491444Y2032428D01*
X2493792Y2032158D01*
X2496077Y2032766D01*
X2497981Y2034168D01*
X2499240Y2036169D01*
X2499680Y2038492D01*
X2480757Y2041794D02*
X2481134Y2039898D01*
X2482208Y2038291D01*
X2480757Y2041794D02*
X2481134Y2039898D01*
X2482208Y2038291D01*
X2509840Y1929272D02*
X2509776Y1930170D01*
X2507617Y1924445D02*
X2509258Y1926615D01*
X2509840Y1929272D01*
X2504388Y1935558D02*
X2501719Y1935369D01*
X2499364Y1934098D01*
X2497742Y1931970D01*
X2497141Y1929362D01*
X2497668Y1926738D01*
X2499228Y1924564D01*
X2501546Y1923226D01*
X2504209Y1922962D01*
X2485510Y2034989D02*
X2487117Y2033916D01*
X2489012Y2033539D01*
X2485510Y2034989D02*
X2487117Y2033916D01*
X2489012Y2033539D01*
X2603058Y2100106D02*
Y2152905D01*
X2604963Y2098201D02*
Y2152917D01*
X2601153Y2102011D02*
Y2152893D01*
X2599248Y2103916D02*
Y2152881D01*
X2597343Y2105821D02*
Y2152869D01*
X2595438Y2107726D02*
Y2152857D01*
X2593533Y2109631D02*
Y2152845D01*
X2591628Y2111536D02*
Y2152833D01*
X2589723Y2113441D02*
Y2152821D01*
X2620203Y2082951D02*
Y2153013D01*
X2622108Y2057510D02*
Y2153025D01*
X2618298Y2084866D02*
Y2153001D01*
X2616393Y2086771D02*
Y2152989D01*
X2614488Y2088676D02*
Y2152977D01*
X2612583Y2090581D02*
Y2152965D01*
X2610678Y2092486D02*
Y2152953D01*
X2608773Y2094391D02*
Y2152941D01*
X2606868Y2096296D02*
Y2152929D01*
X2576388Y2144048D02*
Y2152737D01*
X2578293Y2142143D02*
Y2152749D01*
X2566991Y2152678D02*
X2624775Y2153042D01*
X2574483Y2145953D02*
Y2152725D01*
X2572578Y2147858D02*
Y2152713D01*
X2570673Y2149763D02*
Y2152701D01*
X2568768Y2151657D02*
Y2152689D01*
X2587818Y2115346D02*
Y2152809D01*
X2585913Y2117251D02*
Y2152797D01*
X2584008Y2119156D02*
Y2152785D01*
X2568969Y2151468D02*
X2582430Y2138006D01*
X2582103Y2138333D02*
Y2152773D01*
X2580198Y2140238D02*
Y2152761D01*
X2566863Y2138851D02*
Y2139564D01*
X2563415Y2143013D02*
X2567781Y2138646D01*
X2583881Y2119283D02*
Y2134503D01*
Y2119283D02*
X2620023Y2083142D01*
X2575426Y2113729D02*
X2611567Y2077588D01*
X2621473Y2058467D02*
Y2079639D01*
X2611567Y2058467D02*
Y2077588D01*
X2603058Y2040650D02*
Y2086097D01*
X2597343Y2040650D02*
Y2091812D01*
X2610678Y2056982D02*
Y2078477D01*
X2573975Y2117231D02*
Y2127210D01*
X2573467Y2105421D02*
Y2115327D01*
X2572578Y2118077D02*
Y2124494D01*
X2570673Y2119622D02*
Y2122618D01*
X2568768Y2120025D02*
Y2121555D01*
X2566863Y2119622D02*
Y2121012D01*
Y2054334D02*
Y2101125D01*
X2566967Y2043445D02*
Y2053351D01*
X2566228Y2055880D02*
Y2056526D01*
X2564958Y2138971D02*
Y2141469D01*
X2563053Y2138684D02*
Y2143013D01*
X2561148Y2137947D02*
Y2143013D01*
X2564958Y2119180D02*
Y2120892D01*
X2563053Y2119960D02*
Y2121179D01*
X2559243Y2136611D02*
Y2143013D01*
X2557338Y2134143D02*
Y2143013D01*
X2561148Y2119890D02*
Y2121916D01*
X2557338Y2119756D02*
Y2125720D01*
X2564958Y2059374D02*
Y2101568D01*
X2563053Y2061279D02*
Y2100788D01*
X2561148Y2063184D02*
Y2100857D01*
X2559243Y2065088D02*
Y2101825D01*
Y2118922D02*
Y2123252D01*
X2557338Y2066100D02*
Y2100992D01*
X2555433Y2066178D02*
Y2100733D01*
Y2120013D02*
Y2143013D01*
X2553528Y2119457D02*
Y2143013D01*
X2551623Y2119393D02*
Y2143013D01*
X2549718Y2120004D02*
Y2143013D01*
X2547813Y2119794D02*
Y2143013D01*
X2545908Y2118611D02*
Y2143013D01*
X2544570Y2105421D02*
Y2115327D01*
X2553333Y2084429D02*
Y2101402D01*
X2553528Y2067023D02*
Y2101290D01*
X2544003Y2084911D02*
Y2143013D01*
X2545205Y2086113D02*
Y2103062D01*
X2559269Y2065063D02*
X2559270Y2065062D01*
X2559272Y2065060D02*
X2565111Y2059221D01*
X2559270Y2065062D02*
X2559272Y2065060D01*
X2552139Y2081552D02*
X2552142Y2081556D01*
X2551623Y2068241D02*
Y2081037D01*
X2554290Y2066178D02*
X2556576D01*
X2565111Y2059221D02*
X2565112Y2059220D01*
X2565114Y2059218D01*
X2554998Y2058557D02*
X2555513Y2058042D01*
X2555433Y2058038D02*
Y2058122D01*
X2554290Y2058557D02*
X2554998D01*
X2553528Y2057481D02*
Y2057712D01*
X2551623Y2055564D02*
Y2056494D01*
X2549718Y2068697D02*
Y2079131D01*
X2547813Y2068562D02*
Y2077227D01*
X2551069Y2043445D02*
Y2053351D01*
X2545908Y2067791D02*
Y2075322D01*
X2544003Y2066002D02*
Y2073416D01*
X2545908Y2056846D02*
Y2056944D01*
X2544003Y2057884D02*
Y2058733D01*
X2550328Y2040933D02*
X2551321Y2041927D01*
X2550326Y2040932D02*
X2550328Y2040933D01*
X2547813Y2041195D02*
Y2056173D01*
X2547467Y2043445D02*
Y2053351D01*
X2550325Y2040930D02*
X2550326Y2040932D01*
X2611567Y2040650D02*
Y2050520D01*
X2621473Y2035697D02*
Y2050520D01*
X2610678Y2040650D02*
Y2052005D01*
X2611567Y1966825D02*
Y2030744D01*
X2610678Y1966470D02*
Y2030744D01*
X2606868Y2040650D02*
Y2082287D01*
X2604963Y2040650D02*
Y2084192D01*
X2608773Y1965039D02*
Y2030744D01*
Y2040650D02*
Y2080382D01*
X2624775Y1904507D02*
Y2153042D01*
X2624013Y1904507D02*
Y2153037D01*
X2622108Y1904507D02*
Y2051477D01*
X2621473Y1963815D02*
Y2035697D01*
X2603058Y1904507D02*
Y2030744D01*
X2601153Y1904507D02*
Y2030744D01*
X2606868Y1904507D02*
Y2030744D01*
X2604963Y1904507D02*
Y2030744D01*
X2580198Y2040650D02*
Y2108957D01*
X2582103Y2040650D02*
Y2107052D01*
X2578293Y2040650D02*
Y2110862D01*
X2584008Y2040650D02*
Y2105147D01*
X2566046Y2040650D02*
X2611567D01*
X2576388D02*
Y2112767D01*
X2574483Y2040650D02*
Y2115047D01*
X2572578Y2040650D02*
Y2102670D01*
X2570673Y2040650D02*
Y2101125D01*
X2595438Y2040650D02*
Y2093717D01*
X2593533Y2040650D02*
Y2095622D01*
X2601153Y2040650D02*
Y2088002D01*
X2599248Y2040650D02*
Y2089907D01*
X2587818Y2040650D02*
Y2101337D01*
X2585913Y2040650D02*
Y2103242D01*
X2591628Y2040650D02*
Y2097527D01*
X2589723Y2040650D02*
Y2099432D01*
X2620203Y1904507D02*
Y1960504D01*
X2619785Y1960075D02*
X2620023Y1960313D01*
X2618298Y1904507D02*
Y1956640D01*
X2616393Y1904507D02*
Y1955129D01*
X2614488Y1904507D02*
Y1954499D01*
X2612583Y1904507D02*
Y1954480D01*
X2608773Y1904507D02*
Y1956496D01*
X2599248Y1904507D02*
Y2030744D01*
X2610678Y1904507D02*
Y1955065D01*
X2593152Y1904507D02*
X2624775D01*
X2597343D02*
Y2030744D01*
X2595438Y1904507D02*
Y2030744D01*
X2593533Y1904507D02*
Y2030744D01*
X2593152Y1904507D02*
Y1924445D01*
X2580198Y1928510D02*
Y2030744D01*
X2582103Y1926197D02*
Y2030744D01*
X2578293Y1929487D02*
Y2030744D01*
X2585913Y1924445D02*
Y2030744D01*
X2563090D02*
X2611567D01*
X2572578Y1928510D02*
Y2030744D01*
X2570673Y1926197D02*
Y2030744D01*
X2576388Y1929780D02*
Y2030744D01*
X2574483Y1929487D02*
Y2030744D01*
X2589723Y1924445D02*
Y2030744D01*
X2587818Y1924445D02*
Y2030744D01*
X2591628Y1924445D02*
Y2030744D01*
X2582656Y1924445D02*
X2593152D01*
X2584008D02*
Y2030744D01*
X2570214Y1904507D02*
Y1921948D01*
X2560404Y1904507D02*
X2570214D01*
X2566863Y2040650D02*
Y2042461D01*
X2568768Y2040650D02*
Y2100721D01*
X2563053Y1943677D02*
Y2030715D01*
X2561148Y1945582D02*
Y2029681D01*
X2556830Y1949900D02*
Y2029773D01*
X2559243Y1947487D02*
Y2029349D01*
X2557338Y1949392D02*
Y2029601D01*
X2568768Y1904507D02*
Y2030744D01*
X2566863Y1931496D02*
Y2030744D01*
X2564958Y1941307D02*
Y2030744D01*
X2564095Y1942635D02*
X2564096Y1942634D01*
X2556830Y1949900D02*
X2564095Y1942635D01*
X2564096Y1942634D02*
X2564098Y1942632D01*
X2549718Y2040138D02*
Y2056038D01*
X2550325Y1945629D02*
X2550326Y1945627D01*
X2549210Y2037222D02*
Y2038237D01*
Y1948322D02*
Y2037222D01*
X2544003Y1946271D02*
Y2030975D01*
X2550326Y1945627D02*
X2550328Y1945626D01*
X2551623Y1938651D02*
Y1944330D01*
X2550328Y1945626D02*
X2557592Y1938361D01*
X2547813Y1942461D02*
Y2033248D01*
X2545908Y1944366D02*
Y2031651D01*
X2549718Y1940556D02*
Y1946421D01*
X2565212Y1933336D02*
Y1939940D01*
X2557338Y1933135D02*
Y1938615D01*
X2557592Y1933336D02*
Y1938361D01*
X2557001Y1933273D02*
X2557002Y1933272D01*
X2557004Y1933270D01*
X2566863Y1904507D02*
Y1925015D01*
X2564958Y1904507D02*
Y1922995D01*
X2563053Y1904507D02*
Y1922124D01*
X2561148Y1904507D02*
Y1921911D01*
X2560404Y1904507D02*
Y1921984D01*
X2553528Y1936746D02*
Y1942425D01*
X2555433Y1934841D02*
Y1940520D01*
X2546001Y1931264D02*
X2546003Y1931263D01*
X2545908Y1931358D02*
Y1933589D01*
X2544003Y1933263D02*
Y1935495D01*
X2546000Y1931266D02*
X2546001Y1931264D01*
X2550498Y1924445D02*
Y1929000D01*
X2549718Y1924445D02*
Y1929780D01*
X2549403Y1924445D02*
X2550498D01*
X2548212D02*
X2549403D01*
X2547813D02*
Y1931685D01*
X2547117Y1924445D02*
Y1928571D01*
X2548212Y1924445D02*
X2549403D01*
X2547117D02*
X2548212D01*
X2530668Y2119939D02*
Y2143013D01*
X2534478Y2119671D02*
Y2143013D01*
X2528763Y2130680D02*
Y2143013D01*
X2536383Y2120024D02*
Y2143013D01*
X2522814D02*
X2563415D01*
X2524953Y2137331D02*
Y2143013D01*
X2523048Y2138355D02*
Y2143013D01*
X2528763Y2119917D02*
Y2129183D01*
X2526858Y2135525D02*
Y2143013D01*
X2542098Y2084414D02*
Y2143013D01*
X2540193Y2117910D02*
Y2143013D01*
X2538288Y2119569D02*
Y2143013D01*
X2532573Y2119097D02*
Y2143013D01*
X2526858Y2119016D02*
Y2124338D01*
X2524953Y2086451D02*
Y2122532D01*
X2523048Y2087882D02*
Y2121508D01*
X2518723Y2138921D02*
X2522814Y2143013D01*
X2521143Y2138871D02*
Y2141342D01*
X2519238Y2138965D02*
Y2139437D01*
X2517333Y2151540D02*
Y2152366D01*
X2465517Y2152040D02*
X2518503Y2152373D01*
X2515428Y2149636D02*
Y2152354D01*
X2503798Y2138006D02*
X2517260Y2151468D01*
X2517333Y2087818D02*
Y2121211D01*
X2515428Y2086306D02*
Y2121980D01*
X2521143Y2088467D02*
Y2120992D01*
X2519238Y2088448D02*
Y2120898D01*
X2542444Y2083352D02*
X2545205Y2086113D01*
X2542022Y2071435D02*
X2552139Y2081552D01*
X2542019Y2071432D02*
X2542022Y2071435D01*
X2540967Y2105421D02*
Y2115327D01*
X2540193Y2086908D02*
Y2102837D01*
X2540066Y2087005D02*
Y2102653D01*
X2533462Y2070242D02*
X2539145D01*
X2542098Y2058002D02*
Y2071512D01*
X2540193Y2057281D02*
Y2070379D01*
X2538288Y2057593D02*
Y2070242D01*
X2536383Y2058048D02*
Y2070242D01*
X2534478Y2057695D02*
Y2070242D01*
X2525959Y2085369D02*
Y2102670D01*
X2525822Y2085233D02*
X2525959Y2085369D01*
X2525070Y2105421D02*
Y2115327D01*
X2497013Y2085228D02*
X2513777D01*
Y2082433D02*
X2513909D01*
X2513777D02*
Y2085228D01*
X2532573Y2056253D02*
Y2069281D01*
X2513777Y2073797D02*
X2516190D01*
X2513777Y2071004D02*
Y2073797D01*
X2502888Y2071004D02*
X2513777D01*
X2513523Y2147731D02*
Y2152342D01*
X2511618Y2145826D02*
Y2152330D01*
X2509713Y2143921D02*
Y2152318D01*
X2512253Y2116216D02*
Y2124860D01*
X2507808Y2142016D02*
Y2152306D01*
X2505903Y2140111D02*
Y2152294D01*
X2503998Y2138206D02*
Y2152282D01*
X2502347Y2118267D02*
Y2134503D01*
X2513523Y2085228D02*
Y2123363D01*
X2511618Y2085228D02*
Y2113789D01*
X2509713Y2085228D02*
Y2111624D01*
X2507808Y2085228D02*
Y2109719D01*
X2505903Y2085228D02*
Y2107814D01*
X2503998Y2085228D02*
Y2105909D01*
X2502093Y2118013D02*
Y2152270D01*
X2500188Y2116108D02*
Y2152258D01*
X2498283Y2114203D02*
Y2152246D01*
X2490352Y2106272D02*
X2502347Y2118267D01*
X2496378Y2112298D02*
Y2152234D01*
X2494473Y2110393D02*
Y2152222D01*
X2492568Y2108488D02*
Y2152210D01*
X2490663Y2106583D02*
Y2152198D01*
X2488758Y2105884D02*
Y2152186D01*
X2486853Y2104730D02*
Y2152174D01*
X2497356Y2099267D02*
X2510802Y2112713D01*
X2484948Y2101738D02*
Y2152162D01*
X2483043Y2100388D02*
Y2152150D01*
X2481138Y2099032D02*
Y2152138D01*
X2479233Y2094879D02*
Y2152126D01*
X2500188Y2085228D02*
Y2102099D01*
X2502093Y2085228D02*
Y2104004D01*
X2498118Y2066233D02*
X2502888Y2071004D01*
X2498118Y2066233D02*
X2499142D01*
X2498058Y2054937D02*
X2499142D01*
X2498283Y2085228D02*
Y2100194D01*
X2497013Y2076624D02*
Y2085228D01*
X2498283Y2066233D02*
Y2066399D01*
X2498058Y2066174D02*
X2498118Y2066233D01*
X2505903Y2053283D02*
Y2071004D01*
X2503998Y2053283D02*
Y2071004D01*
X2507808Y2053283D02*
Y2071004D01*
X2498850Y2053283D02*
X2509146D01*
X2502093D02*
Y2070209D01*
X2500188Y2053283D02*
Y2068304D01*
X2499142Y2054937D02*
Y2066233D01*
X2498058Y2053279D02*
Y2054937D01*
X2496251Y2080656D02*
Y2094879D01*
X2496378Y2075989D02*
Y2096514D01*
X2494854Y2094879D02*
X2496251D01*
X2490663Y2080656D02*
X2496251D01*
X2478725Y2094879D02*
X2479365D01*
X2478725Y2080656D02*
X2480757D01*
X2478725D02*
Y2094879D01*
X2494473Y2074084D02*
Y2080656D01*
X2492568Y2072179D02*
Y2080656D01*
X2491124Y2070735D02*
X2497013Y2076624D01*
X2491120Y2070731D02*
X2491124Y2070735D01*
X2490663Y2070186D02*
Y2080656D01*
Y2070186D02*
Y2080656D01*
X2540066Y1950208D02*
Y2031519D01*
X2540193Y1950081D02*
Y2031459D01*
X2542098Y1948176D02*
Y2030917D01*
X2531569Y2043445D02*
Y2053351D01*
X2530668Y1946598D02*
Y2068127D01*
X2532446Y1948630D02*
Y2040711D01*
X2540066Y1950208D02*
X2557001Y1933273D01*
X2533562Y1945936D02*
X2533564Y1945934D01*
X2534478Y1942788D02*
Y1945020D01*
X2533564Y1945934D02*
X2550498Y1929000D01*
X2532573Y1944693D02*
Y1947654D01*
X2533561Y1945937D02*
X2533562Y1945936D01*
X2515428Y2045912D02*
Y2073797D01*
X2517333Y2045795D02*
Y2073952D01*
X2513523Y2047817D02*
Y2071004D01*
X2511618Y2049722D02*
Y2071004D01*
X2511010Y2050330D02*
X2511012Y2050328D01*
X2511009Y2050331D02*
X2511010Y2050330D01*
X2529126Y1948139D02*
Y2067745D01*
X2518222Y2045603D02*
Y2074306D01*
X2529126Y1948139D02*
X2546000Y1931266D01*
X2511012Y2050328D02*
X2515546Y2045794D01*
X2512634Y1943804D02*
Y2034427D01*
X2511618Y1942788D02*
Y2035381D01*
X2536383Y1940883D02*
Y1943114D01*
X2538288Y1938978D02*
Y1941210D01*
X2520064Y1941037D02*
X2528497Y1932605D01*
X2542098Y1935168D02*
Y1937399D01*
X2540193Y1937073D02*
Y1939305D01*
X2521143Y1934604D02*
Y1939958D01*
X2519238Y1934272D02*
Y1939635D01*
X2524953Y1933428D02*
Y1936148D01*
X2523048Y1934352D02*
Y1938053D01*
X2528497Y1924445D02*
Y1932605D01*
X2527402Y1924445D02*
X2528497D01*
X2526350D02*
X2527402D01*
X2526858D02*
Y1925239D01*
Y1931272D02*
Y1934243D01*
X2526350Y1924445D02*
X2527402D01*
X2519138Y1939531D02*
X2519140Y1939533D01*
X2519137Y1939530D02*
X2519138Y1939531D01*
X2509776Y1930170D02*
X2519137Y1939530D01*
X2504388Y1935558D02*
X2512634Y1943804D01*
X2517333Y1933238D02*
Y1937726D01*
X2515428Y1930744D02*
Y1935821D01*
X2515210Y1924445D02*
X2516190D01*
X2515210D02*
X2516190D01*
X2513523D02*
Y1933916D01*
X2511618Y1924445D02*
Y1932011D01*
X2515428Y1924445D02*
Y1925767D01*
X2507617Y1924445D02*
X2515210D01*
X2509146Y2051354D02*
Y2053283D01*
X2509713Y2051180D02*
Y2071004D01*
X2498850Y2053279D02*
X2499142D01*
Y2041988D02*
X2508576D01*
X2498634Y2041983D02*
X2499142D01*
X2498850Y2053279D02*
Y2053283D01*
X2498283Y2053279D02*
Y2054937D01*
X2499142Y2041983D02*
Y2041988D01*
X2498850D02*
X2499142D01*
X2508576D02*
X2510158Y2040405D01*
X2507808Y1938978D02*
Y2041988D01*
X2509713Y1940883D02*
Y2040850D01*
X2505903Y1937073D02*
Y2041988D01*
X2503998Y1935601D02*
Y2041988D01*
X2502093Y1935466D02*
Y2041988D01*
X2500188Y1934695D02*
Y2041988D01*
X2498058Y2053279D02*
X2498850D01*
X2483043Y2028967D02*
Y2037456D01*
X2482208Y2038291D02*
X2485510Y2034989D01*
X2480757Y2041794D02*
Y2080656D01*
X2479233Y2028967D02*
Y2080656D01*
X2481138Y2028967D02*
Y2039888D01*
X2477328Y1904507D02*
Y2152114D01*
X2475423Y1904507D02*
Y2152102D01*
X2473518Y1904507D02*
Y2152090D01*
X2471613Y1904507D02*
Y2152078D01*
X2469708Y1904507D02*
Y2152066D01*
X2467803Y1904507D02*
Y2152054D01*
X2465898Y1904507D02*
Y2152042D01*
X2465517Y1904507D02*
Y2152040D01*
X2509713Y1924445D02*
Y1928008D01*
X2507808Y1924445D02*
Y1924616D01*
X2498283Y1932906D02*
Y2034518D01*
X2490663Y2028967D02*
Y2032729D01*
X2493584Y2008138D02*
Y2028967D01*
X2492568D02*
Y2032187D01*
X2502093Y1904507D02*
Y1923077D01*
X2500188Y1904507D02*
Y1923848D01*
X2504209Y1904507D02*
Y1922962D01*
X2503998Y1904507D02*
Y1922942D01*
X2496378Y1904507D02*
Y2032921D01*
X2494473Y1904507D02*
Y2032245D01*
X2498283Y1904507D02*
Y1925637D01*
X2492568Y1904507D02*
Y2008138D01*
X2489012Y2033539D02*
X2489357D01*
X2478344Y2008138D02*
X2493584D01*
X2478344Y2028967D02*
X2493584D01*
X2486853D02*
Y2034034D01*
X2484948Y2028967D02*
Y2035551D01*
X2488758Y2028967D02*
Y2033545D01*
X2478344Y2008138D02*
Y2028967D01*
X2488758Y1904507D02*
Y2008138D01*
X2486853Y1904507D02*
Y2008138D01*
X2490663Y1904507D02*
Y2008138D01*
X2465517Y1904507D02*
X2504209D01*
X2481138D02*
Y2008138D01*
X2479233Y1904507D02*
Y2008138D01*
X2484948Y1904507D02*
Y2008138D01*
X2483043Y1904507D02*
Y2008138D01*
X2549269Y2110374D02*
X2555768D01*
X2562268D01*
X2568768D01*
X2528636Y2074306D02*
X2539145D01*
X2549269Y2084429D01*
Y2110374D01*
X2493994Y2067858D02*
X2504252Y2078116D01*
X2493994Y2047631D02*
Y2067858D01*
D13*
X2503998Y2047635D02*
D03*
X2493994Y2047631D02*
D03*
Y2060585D02*
D03*
X2503998Y2060589D02*
D03*
D20*
X2485710Y2041794D02*
Y2094626D01*
X2491044Y2099960D02*
X2507300Y2116216D01*
X2613472Y1960768D02*
X2616520Y1963815D01*
Y2035697D01*
Y2054494D01*
X2559116Y2035697D02*
X2616520D01*
X2578928Y2117231D02*
Y2134503D01*
Y2117231D02*
X2616520Y2079639D01*
Y2054494D02*
Y2079639D01*
X2565466Y2147966D02*
X2578928Y2134503D01*
X2489012Y2038492D02*
X2493330D01*
X2485710Y2041794D02*
X2489012Y2038492D01*
X2507300Y2116216D02*
Y2134503D01*
X2520762Y2147966D01*
X2565466D01*
D21*
X2521270Y1912797D02*
X2521306Y1912762D01*
X2576310D02*
X2576388Y1912840D01*
Y1923430D01*
X2503490Y1929272D02*
X2516444Y1942225D01*
Y2039507D01*
X2536256Y2081926D02*
Y2110361D01*
X2536268Y2110374D01*
X2542768Y2048398D02*
X2542860Y2048306D01*
Y2037222D02*
Y2048306D01*
X2522032Y2076084D02*
X2522540Y2076591D01*
X2522569D01*
X2529769Y2083791D01*
Y2110374D01*
X2528382Y2074052D02*
X2528636Y2074306D01*
X2525316Y2070986D02*
X2528382Y2074052D01*
X2562418Y2048398D02*
Y2056526D01*
X2549210Y2062368D02*
X2556576D01*
X2562418Y2056526D01*
X2521270Y1912797D02*
Y1928255D01*
X2504252Y2078116D02*
X2505395D01*
X2503998Y2047635D02*
X2508316D01*
X2516444Y2039507D01*
X2555768Y2040986D02*
Y2048398D01*
X2561402Y1928255D02*
Y1939940D01*
X2522032Y1944457D02*
Y2076084D01*
Y1944457D02*
X2532307Y1934183D01*
Y1915302D02*
Y1934183D01*
X2525316Y1946561D02*
Y2070986D01*
Y1946561D02*
X2543307Y1928571D01*
Y1915302D02*
Y1928571D01*
X2536256Y1948630D02*
Y2048398D01*
Y1948630D02*
X2554308Y1930578D01*
Y1915302D02*
Y1930578D01*
X2553020Y1948322D02*
X2561402Y1939940D01*
X2553020Y1948322D02*
Y2038237D01*
X2555768Y2040986D01*
D22*
X2516190Y2078116D02*
X2520254Y2082180D01*
X2505395Y2078116D02*
X2516190D01*
D24*
X2519746Y2129931D02*
D03*
X2565346D02*
D03*
D25*
X2484046D02*
D03*
X2601046D02*
D03*
D26*
X2491044Y2099960D02*
D03*
X2485710Y2094626D02*
D03*
X2503490Y1929272D02*
D03*
X2576388Y1923430D02*
D03*
X2536256Y2081926D02*
D03*
X2542860Y2037222D02*
D03*
X2520254Y2082180D02*
D03*
X2528382Y2074052D02*
D03*
X2493330Y2038492D02*
D03*
X2616520Y2054494D02*
D03*
X2613472Y1960768D02*
D03*
X2516444Y2039507D02*
D03*
X2559116Y2035697D02*
D03*
X2549210Y2062368D02*
D03*
X2521270Y1928255D02*
D03*
X2561402D02*
D03*
X2544384Y2011821D02*
D03*
Y1996835D02*
D03*
Y1981595D02*
D03*
Y1966609D02*
D03*
Y1951877D02*
D03*
X2563688Y2012330D02*
D03*
Y1996835D02*
D03*
Y1981850D02*
D03*
Y1966355D02*
D03*
Y1951624D02*
D03*
X2518730Y2096149D02*
D03*
X2564958Y2085735D02*
D03*
X2605598Y2074686D02*
D03*
X2589596Y2082941D02*
D03*
X2580960Y2012330D02*
D03*
Y1996582D02*
D03*
Y1981850D02*
D03*
Y1966102D02*
D03*
Y1951116D02*
D03*
X2603820Y1937654D02*
D03*
X2612202Y1948322D02*
D03*
X2620076Y1920889D02*
D03*
X2471486Y1914032D02*
D03*
X2500696Y1913524D02*
D03*
X2500442Y1975627D02*
D03*
X2491806Y1955179D02*
D03*
X2547432Y2072020D02*
D03*
X2502982Y2066431D02*
D03*
X2474534Y2079893D02*
D03*
X2471232Y2032776D02*
D03*
X2470724Y1957720D02*
D03*
X2510348Y2028586D02*
D03*
D27*
X2487488Y2087767D02*
D03*
D28*
X2505395Y2097419D02*
D03*
Y2078116D02*
D03*
D29*
X2597978Y2005726D02*
D03*
D30*
X2601788Y1990739D02*
D03*
D31*
X2485964Y2018553D02*
D03*
D32*
X2485710Y1914158D02*
D03*
D33*
X2482281Y1996835D02*
D03*
D34*
X2600264Y1914158D02*
D03*
D35*
X2510305Y1912762D02*
D03*
X2521306D02*
D03*
X2532307D02*
D03*
X2543307D02*
D03*
X2554308D02*
D03*
X2565309D02*
D03*
X2576310D02*
D03*
D36*
X2587310D02*
D03*
D37*
X2568768Y2110374D02*
D03*
X2562268D02*
D03*
X2555768D02*
D03*
X2549269D02*
D03*
X2542768D02*
D03*
X2536268D02*
D03*
X2529769D02*
D03*
X2562268Y2048398D02*
D03*
X2555768D02*
D03*
X2549269D02*
D03*
X2542768D02*
D03*
X2536268D02*
D03*
X2529769D02*
D03*
X2568768D02*
D03*
M02*
