%FSLAX44Y44*%
%MOMM*%
G71*
G01*
G75*
%ADD10C,0.2032*%
%ADD11R,1.2000X2.2500*%
%ADD12R,0.5200X0.4200*%
%ADD13R,0.4200X0.5200*%
%ADD14R,7.1500X7.1500*%
%ADD15O,0.7620X0.2286*%
%ADD16O,0.2286X0.7620*%
%ADD17R,0.6604X0.7112*%
%ADD18R,1.1430X1.2700*%
%ADD19R,1.3208X0.9652*%
%ADD20C,0.3810*%
%ADD21C,0.1524*%
%ADD22C,0.2540*%
%ADD23C,0.5080*%
%ADD24C,1.2000*%
%ADD25C,3.2000*%
%ADD26C,0.6604*%
%ADD27R,1.1430X0.8128*%
%ADD28R,1.0668X0.8128*%
%ADD29R,1.3970X0.8636*%
%ADD30R,0.7620X1.4732*%
%ADD31R,0.9144X1.4732*%
%ADD32R,1.4224X1.4224*%
%ADD33R,0.7620X1.3716*%
%ADD34R,1.0668X1.5240*%
%ADD35R,0.6096X1.7272*%
%ADD36R,0.5588X1.7272*%
%ADD37O,0.3302X1.3208*%
%ADD38C,0.1778*%
%ADD39C,0.1520*%
%ADD40C,0.1693*%
D39*
X2513746Y2129931D02*
X2525746D01*
X2519746Y2123931D02*
Y2135932D01*
X2559346Y2129931D02*
X2571346D01*
X2565346Y2123931D02*
Y2135932D01*
X2473046Y2129931D02*
X2495046D01*
X2484046Y2118931D02*
Y2140932D01*
X2590046Y2129931D02*
X2612046D01*
X2601046Y2118931D02*
Y2140932D01*
X2489266Y2099960D02*
X2492822D01*
X2491044Y2098181D02*
Y2101738D01*
X2483932Y2094626D02*
X2487488D01*
X2485710Y2092847D02*
Y2096404D01*
X2501712Y1929272D02*
X2505268D01*
X2503490Y1927493D02*
Y1931049D01*
X2574610Y1923430D02*
X2578166D01*
X2576388Y1921651D02*
Y1925208D01*
X2534478Y2081926D02*
X2538034D01*
X2536256Y2080148D02*
Y2083703D01*
X2541082Y2037222D02*
X2544638D01*
X2542860Y2035444D02*
Y2038999D01*
X2518476Y2082180D02*
X2522032D01*
X2520254Y2080401D02*
Y2083958D01*
X2526604Y2074052D02*
X2530160D01*
X2528382Y2072274D02*
Y2075829D01*
X2491552Y2038492D02*
X2495108D01*
X2493330Y2036714D02*
Y2040269D01*
X2614742Y2054494D02*
X2618298D01*
X2616520Y2052715D02*
Y2056272D01*
X2611694Y1960768D02*
X2615250D01*
X2613472Y1958990D02*
Y1962545D01*
X2514666Y2039507D02*
X2518222D01*
X2516444Y2037729D02*
Y2041286D01*
X2557338Y2035697D02*
X2560894D01*
X2559116Y2033920D02*
Y2037475D01*
X2547432Y2062368D02*
X2550988D01*
X2549210Y2060589D02*
Y2064146D01*
X2519492Y1928255D02*
X2523048D01*
X2521270Y1926478D02*
Y1930034D01*
X2559624Y1928255D02*
X2563180D01*
X2561402Y1926478D02*
Y1930034D01*
X2542606Y2011821D02*
X2546162D01*
X2544384Y2010043D02*
Y2013600D01*
X2542606Y1996835D02*
X2546162D01*
X2544384Y1995058D02*
Y1998613D01*
X2542606Y1981595D02*
X2546162D01*
X2544384Y1979818D02*
Y1983374D01*
X2542606Y1966609D02*
X2546162D01*
X2544384Y1964832D02*
Y1968387D01*
X2542606Y1951877D02*
X2546162D01*
X2544384Y1950099D02*
Y1953656D01*
X2561910Y2012330D02*
X2565466D01*
X2563688Y2010551D02*
Y2014108D01*
X2561910Y1996835D02*
X2565466D01*
X2563688Y1995058D02*
Y1998613D01*
X2561910Y1981850D02*
X2565466D01*
X2563688Y1980072D02*
Y1983627D01*
X2561910Y1966355D02*
X2565466D01*
X2563688Y1964577D02*
Y1968134D01*
X2561910Y1951624D02*
X2565466D01*
X2563688Y1949845D02*
Y1953401D01*
X2516952Y2096149D02*
X2520508D01*
X2518730Y2094371D02*
Y2097928D01*
X2563180Y2085735D02*
X2566736D01*
X2564958Y2083958D02*
Y2087513D01*
X2603820Y2074686D02*
X2607376D01*
X2605598Y2072908D02*
Y2076465D01*
X2587818Y2082941D02*
X2591374D01*
X2589596Y2081163D02*
Y2084720D01*
X2579182Y2012330D02*
X2582738D01*
X2580960Y2010551D02*
Y2014108D01*
X2579182Y1996582D02*
X2582738D01*
X2580960Y1994803D02*
Y1998360D01*
X2579182Y1981850D02*
X2582738D01*
X2580960Y1980072D02*
Y1983627D01*
X2579182Y1966102D02*
X2582738D01*
X2580960Y1964323D02*
Y1967879D01*
X2579182Y1951116D02*
X2582738D01*
X2580960Y1949337D02*
Y1952894D01*
X2602042Y1937654D02*
X2605598D01*
X2603820Y1935876D02*
Y1939431D01*
X2610424Y1948322D02*
X2613980D01*
X2612202Y1946543D02*
Y1950099D01*
X2618298Y1920889D02*
X2621854D01*
X2620076Y1919111D02*
Y1922668D01*
X2469708Y1914032D02*
X2473264D01*
X2471486Y1912254D02*
Y1915809D01*
X2498918Y1913524D02*
X2502474D01*
X2500696Y1911745D02*
Y1915302D01*
X2498664Y1975627D02*
X2502220D01*
X2500442Y1973849D02*
Y1977404D01*
X2490028Y1955179D02*
X2493584D01*
X2491806Y1953401D02*
Y1956958D01*
X2545654Y2072020D02*
X2549210D01*
X2547432Y2070242D02*
Y2073797D01*
X2501204Y2066431D02*
X2504760D01*
X2502982Y2064653D02*
Y2068210D01*
X2472756Y2079893D02*
X2476312D01*
X2474534Y2078116D02*
Y2081671D01*
X2469454Y2032776D02*
X2473010D01*
X2471232Y2030999D02*
Y2034554D01*
X2468946Y1957720D02*
X2472502D01*
X2470724Y1955941D02*
Y1959498D01*
X2508570Y2028586D02*
X2512126D01*
X2510348Y2026808D02*
Y2030363D01*
M02*
